<mxfile host="app.diagrams.net" modified="2024-05-27T07:01:00.463Z" agent="Mozilla/5.0 (Windows NT 10.0; Win64; x64; rv:126.0) Gecko/20100101 Firefox/126.0" version="24.4.8" etag="dGwuaKzuEpV1BA3Oi1NL" type="github">
  <diagram name="Page-1" id="6xZI5KECllZ_ib1aO2S6">
    <mxGraphModel>
      <root>
        <mxCell id="0" />
        <mxCell id="1" parent="0" />
      </root>
    </mxGraphModel>
  </diagram>
</mxfile>
